<?xml version="1.0" encoding="utf-8"?>
<!-- Generator: Adobe Illustrator 22.1.0, SVG Export Plug-In . SVG Version: 6.00 Build 0)  -->
<svg version="1.1" id="Layer_1" xmlns="http://www.w3.org/2000/svg" xmlns:xlink="http://www.w3.org/1999/xlink" x="0px" y="0px"
	 viewBox="0 0 18 18" style="enable-background:new 0 0 18 18;" xml:space="preserve">
<style type="text/css">
	.st0{fill:#231f20;}
</style>
<path id="path-1_1_" class="st0" d="M9,4.5c-2.6,0-4.6,2-4.6,4.5s2.1,4.5,4.6,4.5s4.6-2,4.6-4.5S11.6,4.5,9,4.5z M9,11.9
	c-1.7,0-3-1.3-3-2.9s1.3-2.9,3-2.9s3,1.3,3,2.9S10.7,11.9,9,11.9z M14.9,4.3c0,0.6-0.5,1-1.1,1c-0.6,0-1.1-0.5-1.1-1s0.5-1,1.1-1
	C14.4,3.3,14.9,3.8,14.9,4.3z M17.9,5.4c-0.1-1.4-0.4-2.6-1.5-3.7c-1.1-1-2.3-1.3-3.8-1.4c-1.5-0.1-5.9-0.1-7.4,0
	C3.8,0.4,2.6,0.7,1.5,1.7S0.1,4,0.1,5.4C0,6.8,0,11.2,0.1,12.6c0.1,1.4,0.4,2.6,1.5,3.7s2.3,1.3,3.8,1.4c1.5,0.1,5.9,0.1,7.4,0
	c1.4-0.1,2.7-0.4,3.8-1.4c1.1-1,1.4-2.3,1.5-3.7C18,11.2,18,6.8,17.9,5.4z M16,14.2c-0.3,0.8-0.9,1.4-1.7,1.7
	c-1.2,0.5-4,0.4-5.3,0.4s-4.1,0.1-5.3-0.4c-0.8-0.3-1.4-0.9-1.7-1.7C1.5,13,1.6,10.3,1.6,9S1.5,5,2,3.8c0.3-0.8,0.9-1.4,1.7-1.7
	c1.2-0.5,4-0.4,5.3-0.4s4.1-0.1,5.3,0.4c0.8,0.3,1.4,0.9,1.7,1.7C16.5,5,16.4,7.7,16.4,9S16.5,13,16,14.2z"/>
</svg>
