<svg id="Layer_1" data-name="Layer 1" xmlns="http://www.w3.org/2000/svg" viewBox="0 0 153.24 116.7"><title>parlo-uniform</title><path d="M2.79,59.66a2.86,2.86,0,0,1,.06-4.82L74,2.45a5.61,5.61,0,0,1,6.38.08L150.45,57a2.88,2.88,0,0,1-.06,4.84L79.7,114.24a5.61,5.61,0,0,1-6.38-.07Z" fill="none" stroke="#ffffff" stroke-miterlimit="10" stroke-width="3"/><path d="M37.79,45A1.63,1.63,0,0,0,37,46.31q0,.71,1,.71a3.51,3.51,0,0,0,1.17-.27h0q.12,0,.12.5a1.06,1.06,0,0,1-.09.59,7.63,7.63,0,0,1-4.14,1.77,2.93,2.93,0,0,1-2.45-1,4,4,0,0,1-.76-2.53,5,5,0,0,1,1.69-3.31,17.45,17.45,0,0,1,4.54-3.24,29.82,29.82,0,0,1,7.08-2.46,42.64,42.64,0,0,1,9.49-1,17.09,17.09,0,0,1,8.81,2.09q3.54,2.09,3.54,4.77a9.76,9.76,0,0,1-1.84,5.43,19.21,19.21,0,0,1-4.61,4.8,26.24,26.24,0,0,1-6.15,3.35,17,17,0,0,1-6,1.31,4.72,4.72,0,0,1-4.14-2.18q-3.62,5.78-4.9,7.9t-2.18,3.56q-.89,1.44-1.38,2.26l-.51.85a1.44,1.44,0,0,1-1.07.56L33.08,71l-.57,0h-.4q-1.4,0-1.4-.9,0-1.14,4.69-8.56t8.84-13.47q4.15-6,4.84-6.8a2.76,2.76,0,0,1,1.23-.88A7.9,7.9,0,0,1,52,40.25h1.19c.21,0,.31.17.31.5a1.42,1.42,0,0,1-.12.69q-2.09,3-7.56,11.76a.87.87,0,0,0,.63.48,4.38,4.38,0,0,0,.94.1h.69a12.22,12.22,0,0,0,4.73-1.08,19.75,19.75,0,0,0,4.47-2.58A18.93,18.93,0,0,0,60.52,47a4.86,4.86,0,0,0,1.3-2.79,3.3,3.3,0,0,0-.71-2.08,4.82,4.82,0,0,0-2-1.45,14.93,14.93,0,0,0-5.89-1,24.61,24.61,0,0,0-8.35,1.83A28.05,28.05,0,0,0,37.79,45Z" fill="#fff"/><path d="M77.9,52.59q1.81,0,1.81,1.26a1.38,1.38,0,0,1-.31,1,14.49,14.49,0,0,0-1.32,2.09q-1,1.78-2.24,4.55a21.77,21.77,0,0,0-1.58,4.73,2.49,2.49,0,0,0-.07.68q0,1.33.71,1.33a3.09,3.09,0,0,0,1.69-.69,12.26,12.26,0,0,0,1.74-1.48q.76-.79,1.49-1.61t.87-.94a.65.65,0,0,1,.43-.12q.45,0,.55.7a10.79,10.79,0,0,1,.1,1.45,2.62,2.62,0,0,1-.14,1,11.73,11.73,0,0,1-3,3.31,7,7,0,0,1-4.26,1.94,3.32,3.32,0,0,1-2.82-1.19,4.22,4.22,0,0,1-.9-2.62,6.26,6.26,0,0,1,.48-2.53,20.66,20.66,0,0,1-4.53,4.43,8,8,0,0,1-4.17,1.81,3.63,3.63,0,0,1-2.64-1,4.47,4.47,0,0,1-1.31-3.42,11,11,0,0,1,1-4.4,15.9,15.9,0,0,1,2.53-4,25.59,25.59,0,0,1,3.45-3.33q3.95-3.15,7.28-3.15a4.4,4.4,0,0,1,2.09.44,2,2,0,0,1,1,1.09,3.61,3.61,0,0,1,1-1.1A2.38,2.38,0,0,1,77.9,52.59Zm-3.16,2.69q-4.07,0-8.42,4.6a20.25,20.25,0,0,0-2.84,3.94A8.4,8.4,0,0,0,62.17,67q0,.85.48.85.67,0,3.71-2.67a36.92,36.92,0,0,0,4-3.93Q71.5,59.8,74.73,55.27Z" fill="#fff"/><path d="M87.36,57.79q5.61-6.48,9.56-6.48a2.25,2.25,0,0,1,1.61.59,2,2,0,0,1,.63,1.54,7.66,7.66,0,0,1-1.32,3.16q-1.32,2.21-2.44,3.74a1.69,1.69,0,0,1-1.34.77,1.37,1.37,0,0,1-1.17-.56,2.12,2.12,0,0,1-.42-1.31,6.21,6.21,0,0,1,1.76-3.77l0,0q-.78.07-3.89,3.14T85,64.07Q82.84,66.5,80.3,70q-.74,1-1.25,1a4,4,0,0,1-1.36-.33,5.07,5.07,0,0,1-1-.47.59.59,0,0,1-.18-.48,2.06,2.06,0,0,1,.19-.79,10.3,10.3,0,0,1,.7-1.27q.51-.82,1.55-2.66t3.22-5.56q2.19-3.73,2.62-4.5a19.86,19.86,0,0,1,1.47-2.32,4.31,4.31,0,0,1,3.62-1.38q.57,0,.57.73,0,1.14-2.07,4.28Z" fill="#fff"/><path d="M118.32,35.35a2.45,2.45,0,0,1,.87,2,11,11,0,0,1-1.47,4.25,53,53,0,0,1-3.54,5.9q-2.07,3-4.69,6.4-4.14,5.37-7.94,9.65a9.49,9.49,0,0,1-.2,1.08,7.13,7.13,0,0,0-.18,1.58,1.89,1.89,0,0,0,.73,1.44,2.61,2.61,0,0,0,1.8.64,4.34,4.34,0,0,0,2.3-.77,11.26,11.26,0,0,0,2.13-1.72q2.38-2.49,2.95-2.49t.57,1.77v.48a2.28,2.28,0,0,1-.33,1.38,13.25,13.25,0,0,1-4.5,3.71,10.8,10.8,0,0,1-4.73,1.22,4.19,4.19,0,0,1-3.4-1.39,5.75,5.75,0,0,1-1.17-3.81A31.29,31.29,0,0,1,100,55.62a52.07,52.07,0,0,1,5.6-10.85q7-10.11,10.73-10.11A3.14,3.14,0,0,1,118.32,35.35Zm-3.08,3.33q0-.36-.24-.36-.83,0-4.38,4.84a76.42,76.42,0,0,0-5.13,7.72,41.85,41.85,0,0,0-3,7.23q2.81-3.39,7.77-10.56T115.24,38.68Z" fill="#fff"/><path d="M125.3,52.54a2.26,2.26,0,0,1,1.46.65,2.51,2.51,0,0,1,.75,2,9.31,9.31,0,0,1-.93,3.48A22.83,22.83,0,0,1,124,63a36,36,0,0,1-3.56,4.16,18.65,18.65,0,0,1-4.19,3.19,8.58,8.58,0,0,1-4.08,1.25,3.85,3.85,0,0,1-2.94-1.17,4.57,4.57,0,0,1-1.11-3.27,12.66,12.66,0,0,1,1-4.63,16.89,16.89,0,0,1,2.6-4.49,25.93,25.93,0,0,1,3.45-3.5q3.88-3.17,6.8-3.17a2.71,2.71,0,0,1,2,.65.59.59,0,0,1,.24.39v.15A8.08,8.08,0,0,1,125.3,52.54Zm-2.4,3.22h-.17q-.83,0-.83-1.23a12.79,12.79,0,0,0-3.64,2,17.74,17.74,0,0,0-3.4,3.44q-3,4-3.09,6.7,0,1.35,1,1.36a6.13,6.13,0,0,0,2.9-1.31A17.33,17.33,0,0,0,119.46,63a29.5,29.5,0,0,0,2.83-4.2,6.79,6.79,0,0,0,.94-2.42Q123.23,55.76,122.9,55.76Z" fill="#fff"/></svg>