<svg id="Layer_1" data-name="Layer 1" xmlns="http://www.w3.org/2000/svg" viewBox="0 0 153.82 118.84"><defs><style>.cls-1{font-size:96px;font-family:Tahoma, Tahoma;}</style></defs><title>parlo-p</title><path d="M520,542.42l36-28.49,18.55-14.58c6.22-4.88,12.55-9.7,18.86-14.55l1.6-1.23,1.7,1.26q9.26,6.9,18.46,13.88l18.4,13.95c6.14,4.65,12.21,9.37,18.32,14.06l18.3,14.08,3.67,2.82-3.73,2.75-37.37,27.56L613.94,587.6q-9.37,6.85-18.83,13.59l-1.72,1.23-1.57-1.26c-6.17-4.94-12.37-9.86-18.46-14.84l-18.16-14.86Zm0,0,19.32,13.94,19,13.59,18.58,13.42c6.15,4.45,12.2,9,18.28,13.45l-3.29,0q9.18-7.11,18.43-14.13l18.48-14.05,37.15-27.86-.06,5.57-18.2-14.21c-6.06-4.75-12.15-9.45-18.19-14.23l-18.1-14.34q-9.07-7.14-18-14.41l3.29,0c-6.19,4.39-12.37,8.81-18.64,13.17L559,515.49l-19.33,13.29Z" transform="translate(-520 -483.58)"/><text class="cls-1" transform="translate(48.44 94.48)">P</text></svg>