<?xml version="1.0" encoding="utf-8"?>
<!-- Generator: Adobe Illustrator 22.1.0, SVG Export Plug-In . SVG Version: 6.00 Build 0)  -->
<svg version="1.1" id="Layer_1" xmlns="http://www.w3.org/2000/svg" xmlns:xlink="http://www.w3.org/1999/xlink" x="0px" y="0px"
	 viewBox="0 0 20 18" style="enable-background:new 0 0 20 18;" xml:space="preserve">
<style type="text/css">
	.st0{fill:#231f20;}
</style>
<path id="path-1_1_" class="st0" d="M17.9,4.9c0,0.2,0,0.4,0,0.5c0,5.4-4.1,11.7-11.7,11.7c-2.3,0-4.5-0.7-6.3-1.8
	c0.3,0,0.6,0.1,1,0.1c1.9,0,3.7-0.6,5.1-1.8c-1.8,0-3.3-1.2-3.8-2.8c0.3,0,0.5,0.1,0.8,0.1c0.4,0,0.7-0.1,1.1-0.1
	c-1.9-0.4-3.3-2-3.3-4V6.6C1.4,6.9,2,7.1,2.7,7.1c-1.1-0.7-1.8-2-1.8-3.4c0-0.8,0.2-1.5,0.6-2.1c2,2.5,5.1,4.1,8.5,4.3
	C9.8,5.6,9.7,5.3,9.7,5c0-2.3,1.8-4.1,4.1-4.1c1.2,0,2.2,0.5,3,1.3c0.9-0.2,1.8-0.5,2.6-1c-0.3,1-1,1.8-1.8,2.3
	c0.8-0.1,1.6-0.3,2.4-0.6C19.4,3.6,18.7,4.3,17.9,4.9z"/>
</svg>
